<svg width="500" height="500" viewBox="0 0 500 500" fill="none" xmlns="http://www.w3.org/2000/svg">
<path d="M265.5 177.4C265.5 177.4 255.3 157.3 232.3 162.9C233.5 169 237.4 174.2 242.8 177.2C252.1 182.5 265.5 177.4 265.5 177.4Z" fill="#0C111D"/>
<path d="M267.5 307.5C266.7 307.5 266.1 306.9 266.1 306.1V152.2C266.1 151.4 266.7 150.8 267.5 150.8C268.3 150.8 268.9 151.4 268.9 152.2V306.1C268.9 306.9 268.3 307.5 267.5 307.5Z" fill="#0C111D"/>
<path d="M287.1 188C287.1 188 308.7 182.2 318.2 207.8C318.2 207.8 309.5 210.7 299.5 205.1C289 199.2 287.1 188 287.1 188Z" fill="#0C111D"/>
<path d="M247.4 208.3C247.4 208.3 244.4 230.5 217.1 229.4C217.1 229.4 217.8 220.3 226.8 213.2C236.3 205.8 247.4 208.3 247.4 208.3Z" fill="#0C111D"/>
<path d="M267.5 152.2C282.964 152.2 295.5 139.664 295.5 124.2C295.5 108.736 282.964 96.2 267.5 96.2C252.036 96.2 239.5 108.736 239.5 124.2C239.5 139.664 252.036 152.2 267.5 152.2Z" fill="white"/>
<path d="M267.5 152.9C251.7 152.9 238.8 140.1 238.8 124.2C238.8 108.4 251.6 95.5 267.5 95.5C283.4 95.5 296.2 108.3 296.2 124.2C296.2 140.1 283.4 152.9 267.5 152.9ZM267.5 97C252.4 97 240.2 109.2 240.2 124.3C240.2 139.4 252.4 151.6 267.5 151.6C282.6 151.6 294.8 139.4 294.8 124.3C294.8 109.2 282.6 97 267.5 97Z" fill="#0C111D"/>
<path d="M267.5 147.3C254.8 147.3 244.5 137 244.6 124.3C244.6 111.6 254.9 101.3 267.6 101.4C280.3 101.4 290.5 111.7 290.6 124.4C290.5 137 280.2 147.3 267.5 147.3ZM267.5 102.6C255.5 102.6 245.8 112.3 245.8 124.3C245.8 136.3 255.5 146 267.5 146C279.5 146 289.1 136.3 289.1 124.3C289.2 112.3 279.5 102.6 267.5 102.6Z" fill="#98A2B3"/>
<path d="M268.6 135.7V138.8H266.2V135.6C261.3 135.1 257.9 132.5 257.2 127.7L262.4 126.8C263 129.3 264.2 130.6 266.3 131V125.8C262.2 124.8 257.8 123.5 257.8 119.1C257.8 115.2 261.2 112.6 266.3 112.4V109.7H268.7V112.5C273.2 113 276.3 115.5 277.2 119.1L272 120.2C271.6 118.6 270.3 117.4 268.7 117V121.4C272.9 122.4 278 123.7 278 128.7C277.9 132.9 274.4 135.6 268.6 135.7ZM266.2 121.1V117C264.2 117.1 263.1 117.8 263.1 119.1C263 120.1 264.3 120.6 266.2 121.1ZM272.6 129C272.6 127.6 270.9 127 268.6 126.4V131.2C271.2 131.1 272.5 130.3 272.6 129Z" fill="#00A9BE"/>
<path d="M266.2 223.3C265.9 223.3 265.7 223.2 265.4 223.1L208.3 187.1C207.6 186.7 207.5 185.8 207.9 185.2C208.3 184.5 209.2 184.4 209.8 184.8L266.9 220.8C267.6 221.2 267.8 222.1 267.3 222.7C267.1 223 266.7 223.2 266.2 223.3Z" fill="#0C111D"/>
<path d="M268.6 199.3C267.8 199.3 267.2 198.7 267.2 197.9C267.2 197.4 267.4 197 267.8 196.7L318.3 164.2C319 163.8 319.8 164 320.2 164.6C320.6 165.3 320.4 166.1 319.8 166.5L269.3 199C269.1 199.2 268.9 199.3 268.6 199.3Z" fill="#0C111D"/>
<path d="M204.4 202.1C215.667 202.1 224.8 192.967 224.8 181.7C224.8 170.433 215.667 161.3 204.4 161.3C193.133 161.3 184 170.433 184 181.7C184 192.967 193.133 202.1 204.4 202.1Z" fill="white"/>
<path d="M204.4 202.8C192.8 202.8 183.3 193.4 183.3 181.7C183.3 170.1 192.7 160.6 204.4 160.6C216 160.6 225.5 170 225.5 181.7C225.5 193.3 216.1 202.8 204.4 202.8ZM204.4 162C193.5 162 184.7 170.8 184.7 181.7C184.7 192.6 193.5 201.4 204.4 201.4C215.3 201.4 224.1 192.6 224.1 181.7C224.1 170.8 215.3 162 204.4 162Z" fill="#0C111D"/>
<path d="M204.4 198.7C195 198.7 187.4 191.1 187.4 181.7C187.4 172.3 195 164.7 204.4 164.7C213.8 164.7 221.4 172.3 221.4 181.7C221.4 191.1 213.8 198.7 204.4 198.7ZM204.4 166.1C195.8 166.1 188.8 173.1 188.8 181.7C188.8 190.3 195.8 197.3 204.4 197.3C213 197.3 220 190.3 220 181.7C220 173.1 213.1 166.1 204.4 166.1Z" fill="#98A2B3"/>
<path d="M205.2 190V192.2H203.4V190C199.9 189.6 197.3 187.7 196.8 184.3L200.6 183.6C200.8 185.1 201.9 186.4 203.4 186.7V182.9C200.4 182.2 197.2 181.2 197.2 178C197.2 175.2 199.7 173.3 203.4 173.1V171.1H205.2V173.2C208.5 173.6 210.8 175.4 211.4 178L207.6 178.8C207.3 177.6 206.3 176.8 205.2 176.5V179.7C208.3 180.4 212 181.4 212 185C212 188 209.5 190 205.2 190ZM203.5 179.3V176.3C202.1 176.4 201.2 176.9 201.2 177.8C201.2 178.6 202.1 179 203.5 179.3ZM208.1 185.1C208.1 184.1 206.9 183.6 205.2 183.2V186.7C207.1 186.7 208.1 186.1 208.1 185.1Z" fill="#00A9BE"/>
<path d="M327.9 185.9C339.167 185.9 348.3 176.767 348.3 165.5C348.3 154.233 339.167 145.1 327.9 145.1C316.633 145.1 307.5 154.233 307.5 165.5C307.5 176.767 316.633 185.9 327.9 185.9Z" fill="white"/>
<path d="M327.9 186.6C316.2 186.6 306.8 177.2 306.8 165.5C306.8 153.8 316.2 144.4 327.9 144.4C339.6 144.4 349 153.8 349 165.5C349 177.1 339.6 186.5 327.9 186.6ZM327.9 145.8C317 145.8 308.2 154.6 308.2 165.5C308.2 176.4 317 185.2 327.9 185.2C338.8 185.2 347.6 176.4 347.6 165.5C347.6 154.6 338.8 145.8 327.9 145.8Z" fill="#0C111D"/>
<path d="M327.9 182.5C318.5 182.5 310.9 174.9 310.9 165.5C310.9 156.1 318.5 148.5 327.9 148.5C337.3 148.5 344.9 156.1 344.9 165.5C344.9 174.9 337.3 182.5 327.9 182.5ZM327.9 149.9C319.3 149.9 312.3 156.9 312.3 165.5C312.3 174.1 319.3 181.1 327.9 181.1C336.5 181.1 343.5 174.1 343.5 165.5C343.5 156.8 336.5 149.9 327.9 149.9Z" fill="#98A2B3"/>
<path d="M328.7 173.8V176H326.9V173.7C323.4 173.3 320.8 171.4 320.3 168L324.1 167.3C324.3 168.8 325.4 170.1 326.9 170.4V166.6C323.9 165.9 320.7 164.9 320.7 161.7C320.7 158.9 323.2 157 326.9 156.8V154.8H328.7V156.9C332 157.3 334.3 159.1 334.9 161.7L331.1 162.5C330.8 161.3 329.9 160.5 328.7 160.2V163.4C331.8 164.1 335.5 165.1 335.5 168.7C335.5 171.8 332.9 173.7 328.7 173.8ZM326.9 163.1V160.1C325.5 160.2 324.6 160.7 324.6 161.6C324.6 162.4 325.6 162.8 326.9 163.1ZM331.6 168.9C331.6 167.9 330.4 167.4 328.7 167V170.5C330.6 170.5 331.6 169.9 331.6 168.9Z" fill="#00A9BE"/>
<path d="M146.6 380.8H179V246.2H198.4L162.8 205.5L127.1 246.2H146.6V380.8Z" fill="#00A9BE"/>
<path d="M91 380.8H115.6V326.4H130.3L103.3 295.6L76.3 326.4H91V380.8Z" fill="#00A9BE"/>
<path d="M371.9 380.8H404.3V191.9H423.7L388.1 151.2L352.5 191.9H371.9V380.8Z" fill="#00A9BE"/>
<path d="M245.9 268.9C245.9 268.9 226 256.4 216.8 250.8C207.6 245.2 215.9 241.9 222.1 242.8C222.1 242.8 230 234.3 236.7 239.9C236.7 239.9 241.1 233.2 251.3 230.9C261.5 228.6 281.8 233.8 281.8 233.8C281.8 233.8 290.6 225.8 297 228.3C303.4 230.8 299.3 236.5 299.3 236.5C299.3 236.5 317.5 239.2 315.2 243.8C312.9 248.4 291.3 256.8 286.9 261.9C282.5 267 280.4 269.6 280.4 269.6L245.9 268.9Z" fill="white"/>
<path d="M280.4 270.3L246 269.6C245.9 269.6 245.7 269.6 245.6 269.5C245.4 269.4 225.6 257 216.5 251.4C213 249.3 211.5 247.2 212.2 245.3C213.1 242.7 217.9 241.6 221.9 242.1C223.3 240.7 230.3 234.4 236.6 239C240.3 234.6 245.4 231.5 251.1 230.3C260.7 228 278.7 232.4 281.6 233.1C283.2 231.7 291.1 225.3 297.3 227.8C299.4 228.6 300.7 229.9 301.2 231.5C301.6 233.1 301.3 234.7 300.5 236.1C304 236.7 314.2 238.7 315.9 242C316.3 242.7 316.3 243.5 315.9 244.2C314.6 246.8 308.1 250.2 301.3 253.9C295.5 257 289.5 260.1 287.5 262.5C283.1 267.5 281 270.1 281 270.2C280.8 270.2 280.6 270.3 280.4 270.3ZM246.1 268.2L280 268.9C280.6 268.1 282.7 265.6 286.4 261.4C288.6 258.9 294.4 255.8 300.6 252.5C306.8 249.2 313.5 245.7 314.6 243.4C314.8 243.1 314.8 242.7 314.6 242.4C313.2 239.7 303 237.6 299.2 237C299 237 298.7 236.8 298.7 236.6C298.6 236.4 298.6 236.1 298.8 235.9C298.8 235.9 300.4 233.6 299.8 231.6C299.3 230.3 298.2 229.2 296.8 228.8C290.8 226.4 282.4 234 282.3 234.1C282.1 234.3 281.9 234.3 281.7 234.3C281.5 234.2 261.4 229.1 251.5 231.4C241.6 233.7 237.4 240.1 237.4 240.2C237.3 240.4 237.1 240.5 236.9 240.5C236.7 240.5 236.5 240.5 236.3 240.4C230.2 235.3 222.8 243.2 222.7 243.2C222.5 243.4 222.3 243.4 222.1 243.4C218.3 242.9 214.1 244 213.5 245.7C213.1 246.8 214.4 248.5 217.2 250.2C225.9 255.5 244.2 267 246.1 268.2Z" fill="#0C111D"/>
<path d="M249.6 270.6C249.6 270.6 218.6 292.5 202.9 311.2C191.5 324.8 192 356.5 193.2 372.8C193.6 378.4 199.9 382.9 207.6 382.9H321.7C329 382.9 335.2 378.8 336 373.4C337.8 361.4 340 340.4 336 326.7C330 306.4 285.2 275 283.3 270.5H249.6V270.6Z" fill="white"/>
<path d="M321.8 383.7H207.6C199.6 383.7 192.9 379 192.5 373C191.3 355.7 190.9 324.6 202.4 310.9C218 292.3 248.9 270.4 249.2 270.1C249.3 270 249.5 270 249.6 270H283.3C283.6 270 283.8 270.2 283.9 270.4C284.4 271.6 289.3 275.7 294.9 280.5C308.9 292.4 332.3 312.2 336.6 326.6C340.7 340.6 338.4 362.1 336.7 373.6C335.9 379.4 329.4 383.7 321.8 383.7ZM249.9 271.3C247.3 273.1 218.4 293.9 203.5 311.7C192.4 325 192.7 355.7 193.9 372.8C194.3 378.1 200.3 382.2 207.6 382.2H321.7C328.7 382.2 334.6 378.4 335.3 373.3C337 361.9 339.3 340.7 335.3 326.9C331.2 312.9 308 293.2 294.1 281.5C287.6 276 284 272.9 282.9 271.3H249.9Z" fill="#0C111D"/>
<path d="M275.6 269.3C275.5 269.3 275.4 269.3 275.3 269.2C275 269 274.8 268.6 274.9 268.3C278 261.7 281.9 255.4 286.3 249.6C286.5 249.3 287 249.2 287.3 249.4C287.6 249.6 287.7 250 287.5 250.4C283.1 256.1 279.4 262.3 276.3 268.8C276.1 269.2 275.9 269.3 275.6 269.3Z" fill="#98A2B3"/>
<path d="M261.6 270.1C261.3 270.1 261 269.9 260.9 269.6C257.3 258.9 244.1 244.7 243.9 244.5C243.6 244.2 243.6 243.8 243.9 243.5C244.2 243.2 244.6 243.2 244.9 243.5C245.4 244 255.2 254.6 260.2 264.5C259.3 258.3 257.8 252.2 255.7 246.3C255.6 245.9 255.8 245.5 256.1 245.4C256.5 245.3 256.9 245.5 257 245.8C259.7 253.4 261.4 261.3 262.2 269.3C262.3 269.6 262 269.9 261.6 270.1Z" fill="#98A2B3"/>
<path d="M251.8 269.8C251.5 269.8 251.3 269.6 251.2 269.4C248.6 263.3 239 257.3 238.9 257.3C238.6 257.1 238.5 256.7 238.7 256.3C238.9 256 239.3 255.9 239.7 256.1C240.1 256.3 249.7 262.3 252.5 268.9C252.7 269.3 252.5 269.7 252.1 269.8C251.9 269.8 251.8 269.8 251.8 269.8Z" fill="#98A2B3"/>
<path d="M227.8 311C227.7 311 227.6 311 227.4 310.9C227.1 310.7 226.9 310.3 227.1 310C238.3 290.6 255.7 274.1 255.9 273.9C256.2 273.6 256.6 273.7 256.9 273.9C257.1 274.1 257.1 274.4 257 274.7C256.9 274.9 247.1 293.3 245.1 302.5C245 302.9 244.6 303.1 244.3 303C244 302.9 243.7 302.5 243.8 302.2C245.3 295.4 250.7 284 253.8 278C248.3 283.7 236.7 296.4 228.5 310.6C228.3 310.9 228 311 227.8 311Z" fill="#98A2B3"/>
<path d="M305.4 309.2C305.1 309.2 304.9 309 304.8 308.8C297.3 292.1 270 272.4 269.7 272.2C269.4 272 269.3 271.5 269.6 271.2C269.8 270.9 270.2 270.8 270.5 271C271.6 271.8 298.5 291.1 306.1 308.1C306.3 308.4 306.1 308.9 305.8 309C305.7 309.2 305.5 309.2 305.4 309.2Z" fill="#98A2B3"/>
<path d="M277.4 299.5C277.1 299.5 276.8 299.3 276.7 299C275.3 294.3 272.9 289.9 269.6 286.2C269.3 285.9 269.3 285.5 269.6 285.2C269.9 284.9 270.3 284.9 270.6 285.2C274.1 289 276.6 293.6 278.1 298.6C278.2 299 278 299.4 277.6 299.5C277.6 299.5 277.5 299.5 277.4 299.5Z" fill="#98A2B3"/>
<path d="M244.9 266H283.3C285.3 266 286.9 267.6 286.9 269.6C286.9 271.6 285.3 273.2 283.3 273.2H244.9C242.9 273.2 241.3 271.6 241.3 269.6C241.3 267.6 242.9 266 244.9 266Z" fill="#0C111D"/>
<path d="M283.3 273.9H244.9C242.5 273.8 240.7 271.8 240.8 269.4C240.9 267.2 242.7 265.4 244.9 265.3H283.3C285.7 265.4 287.5 267.4 287.4 269.8C287.3 272.1 285.5 273.8 283.3 273.9ZM244.9 266.7C243.3 266.8 242.1 268.2 242.2 269.8C242.3 271.3 243.5 272.5 244.9 272.5H283.3C284.9 272.4 286.1 271 286 269.4C285.9 267.9 284.7 266.7 283.3 266.7H244.9Z" fill="#0C111D"/>
<path d="M147.9 393.5L127.5 382L128.1 354.3C128.1 354.3 210.2 354 211 354.3C217.6 356.8 223.9 360.2 229.7 364.3L147.9 393.5Z" fill="white"/>
<path d="M147.9 394.2C147.8 394.2 147.7 394.2 147.6 394.1L127.2 382.7C127 382.6 126.8 382.3 126.8 382.1L127.4 354.4C127.4 354 127.7 353.7 128.1 353.7C158.8 353.6 210.4 353.5 211.2 353.7C217.9 356.3 224.2 359.7 230.1 363.8C230.3 364 230.4 364.2 230.4 364.5C230.4 364.8 230.2 365 229.9 365.1L148.1 394.3C148.1 394.2 148 394.2 147.9 394.2ZM128.2 381.6L148 392.7L228.2 364.1C222.8 360.4 216.9 357.3 210.8 355C209.2 354.8 156.9 354.9 128.8 355L128.2 381.6Z" fill="#0C111D"/>
<path d="M229.7 364.3C228.5 363.5 147.9 364.3 147.9 364.3V393.5H229.7V364.3Z" fill="white"/>
<path d="M147.9 394.2C147.5 394.2 147.2 393.9 147.2 393.5V364.3C147.2 363.9 147.5 363.6 147.9 363.6C178 363.3 228.8 362.9 230.1 363.7C230.3 363.8 230.4 364.1 230.4 364.3V393.5C230.4 393.9 230.1 394.2 229.7 394.2H147.9ZM148.6 365V392.8H229V364.9C223.7 364.4 179 364.6 148.6 365Z" fill="#0C111D"/>
<path d="M224.6 380.8H214.7C214.3 380.8 214 380.5 214 380.1C214 379.7 214.3 379.4 214.7 379.4H224.6C225 379.4 225.3 379.7 225.3 380.1C225.3 380.5 225 380.8 224.6 380.8Z" fill="#98A2B3"/>
<path d="M170.4 392.7V364.1L154.2 354.2H195.2L213.5 363.9L214.6 392.4" fill="#0C111D"/>
<path d="M170.4 393.4C170 393.4 169.7 393.1 169.7 392.7V364.4L153.8 354.7C153.5 354.5 153.4 354.1 153.6 353.7C153.7 353.5 154 353.4 154.2 353.4H195.3C195.4 353.4 195.5 353.4 195.6 353.5L213.9 363.2C214.1 363.3 214.3 363.5 214.3 363.8L215.4 392.3C215.4 392.7 215.1 393 214.7 393C214.3 393 214 392.7 214 392.3L212.9 364.2L195.1 354.7H156.7L170.8 363.3C171 363.4 171.1 363.7 171.1 363.9V392.6C171.1 393.1 170.8 393.4 170.4 393.4Z" fill="#0C111D"/>
<path d="M147.9 365C147.8 365 147.7 365 147.6 364.9L127.8 354.9C127.5 354.7 127.3 354.3 127.5 354C127.7 353.7 128.1 353.5 128.4 353.7L148.2 363.7C148.5 363.9 148.7 364.3 148.5 364.6C148.4 364.9 148.2 365 147.9 365Z" fill="#0C111D"/>
<path d="M167.9 372.7H153C152.6 372.7 152.3 372.4 152.3 372C152.3 371.6 152.6 371.3 153 371.3H167.9C168.3 371.3 168.6 371.6 168.6 372C168.6 372.4 168.3 372.7 167.9 372.7Z" fill="#98A2B3"/>
<path d="M227.3 370.9H217C216.6 370.9 216.3 370.6 216.3 370.2C216.3 369.8 216.6 369.5 217 369.5H227.3C227.7 369.5 228 369.8 228 370.2C228 370.6 227.7 370.9 227.3 370.9Z" fill="#98A2B3"/>
<path d="M165.7 383.2H149.6C149.2 383.2 148.9 382.9 148.9 382.5C148.9 382.1 149.2 381.8 149.6 381.8H165.7C166.1 381.8 166.4 382.1 166.4 382.5C166.4 382.9 166.1 383.2 165.7 383.2Z" fill="#98A2B3"/>
<path d="M142.8 369.9C142.7 369.9 142.6 369.9 142.5 369.8L131.7 363.9C131.4 363.7 131.2 363.3 131.4 362.9C131.6 362.6 132 362.4 132.3 362.6L143.1 368.5C143.5 368.7 143.6 369.1 143.4 369.5C143.3 369.8 143 369.9 142.8 369.9Z" fill="#98A2B3"/>
<path d="M145.4 386.3C145.3 386.3 145.2 386.3 145.1 386.2L133.8 380.2C133.5 380 133.3 379.6 133.5 379.3C133.7 379 134.1 378.8 134.4 379L145.7 385C146 385.2 146.2 385.6 146 386C145.9 386.2 145.6 386.3 145.4 386.3Z" fill="#98A2B3"/>
<path d="M141.4 377.1C141.3 377.1 141.2 377.1 141.1 377L129.2 370.7C128.9 370.5 128.7 370.1 128.9 369.8C129.1 369.5 129.5 369.3 129.8 369.5L141.7 375.8C142 376 142.2 376.4 142 376.7C141.9 377 141.6 377.1 141.4 377.1Z" fill="#98A2B3"/>
<path d="M169 388.9H159.5C159.1 388.9 158.8 388.6 158.8 388.2C158.8 387.8 159.1 387.5 159.5 387.5H169C169.4 387.5 169.7 387.8 169.7 388.2C169.7 388.6 169.4 388.9 169 388.9Z" fill="#98A2B3"/>
<path d="M211.1 343.9V352.9C211.1 356.3 201.4 359.1 189.3 359.1C177.2 359.1 167.5 356.3 167.5 352.9V343.9H211.1Z" fill="white"/>
<path d="M189.3 359.8C178.4 359.8 166.8 357.4 166.8 352.9V343.9C166.8 343.5 167.1 343.2 167.5 343.2H211C211.4 343.2 211.7 343.5 211.7 343.9V352.9C211.8 357.4 200.2 359.8 189.3 359.8ZM168.2 344.6V352.9C168.2 355.5 176.8 358.4 189.3 358.4C201.8 358.4 210.4 355.5 210.4 352.9V344.6H168.2Z" fill="#0C111D"/>
<path d="M189.3 350.1C201.34 350.1 211.1 347.324 211.1 343.9C211.1 340.476 201.34 337.7 189.3 337.7C177.26 337.7 167.5 340.476 167.5 343.9C167.5 347.324 177.26 350.1 189.3 350.1Z" fill="#0C111D"/>
<path d="M189.3 350.8C178.4 350.8 166.8 348.4 166.8 343.9C166.8 339.4 178.4 337 189.3 337C200.2 337 211.8 339.4 211.8 343.9C211.8 348.4 200.2 350.8 189.3 350.8ZM189.3 338.4C176.9 338.4 168.2 341.3 168.2 343.9C168.2 346.5 176.8 349.4 189.3 349.4C201.8 349.4 210.4 346.5 210.4 343.9C210.4 341.3 201.7 338.4 189.3 338.4Z" fill="#0C111D"/>
<path d="M205.9 331.6V340.6C205.9 344 196.1 346.8 184.1 346.8C172.1 346.8 162.3 344 162.3 340.6V331.6H205.9Z" fill="white"/>
<path d="M184.2 347.4C173.3 347.4 161.7 345 161.7 340.5V331.5C161.7 331.1 162 330.8 162.4 330.8H205.9C206.3 330.8 206.6 331.1 206.6 331.5V340.5C206.6 345 195.1 347.4 184.2 347.4ZM163.1 332.3V340.6C163.1 343.2 171.7 346.1 184.2 346.1C196.7 346.1 205.3 343.2 205.3 340.6V332.3H163.1Z" fill="#0C111D"/>
<path d="M184.2 337.8C196.24 337.8 206 335.024 206 331.6C206 328.176 196.24 325.4 184.2 325.4C172.16 325.4 162.4 328.176 162.4 331.6C162.4 335.024 172.16 337.8 184.2 337.8Z" fill="white"/>
<path d="M184.2 338.4C173.3 338.4 161.7 336 161.7 331.5C161.7 327 173.3 324.6 184.2 324.6C195.1 324.6 206.7 327 206.7 331.5C206.7 336 195.1 338.4 184.2 338.4ZM184.2 326.1C171.8 326.1 163.1 329 163.1 331.6C163.1 334.2 171.7 337.1 184.2 337.1C196.7 337.1 205.3 334.2 205.3 331.6C205.3 329 196.6 326.1 184.2 326.1Z" fill="#0C111D"/>
<path d="M184.2 336C177.6 336 165.2 335.1 165.2 331.5C165.2 327.9 177.6 327.1 184.2 327.1C190.8 327.1 203.1 328 203.1 331.5C203.1 335 190.7 336 184.2 336ZM184.2 328.5C172.8 328.5 166.6 330.5 166.6 331.5C166.6 332.5 172.8 334.5 184.2 334.5C195.6 334.5 201.8 332.5 201.8 331.5C201.8 330.5 195.5 328.5 184.2 328.5Z" fill="#98A2B3"/>
<path d="M395.9 374.6L308.4 373.8L284.3 396.1H385.5L395.9 374.6Z" fill="white"/>
<path d="M385.5 396.8H284.3C283.9 396.8 283.6 396.5 283.6 396.1C283.6 395.9 283.7 395.7 283.8 395.6L307.9 373.3C308 373.2 308.2 373.1 308.4 373.1L395.9 373.9C396.1 373.9 396.4 374 396.5 374.2C396.6 374.4 396.6 374.7 396.5 374.9L386.1 396.4C386 396.6 385.7 396.8 385.5 396.8ZM286.1 395.4H385.1L394.9 375.3L308.8 374.5L286.1 395.4Z" fill="#0C111D"/>
<path d="M282.3 378.4V387.4C282.3 390.8 292 393.6 304.1 393.6C316.2 393.6 325.9 390.8 325.9 387.4V378.4H282.3Z" fill="white"/>
<path d="M304.1 394.2C293.2 394.2 281.6 391.8 281.6 387.3V378.3C281.6 377.9 281.9 377.6 282.3 377.6H325.8C326.2 377.6 326.5 377.9 326.5 378.3V387.3C326.5 391.8 315 394.2 304.1 394.2ZM283 379.1V387.4C283 390 291.6 392.9 304.1 392.9C316.6 392.9 325.2 390 325.2 387.4V379.1H283Z" fill="#0C111D"/>
<path d="M304.1 384.6C316.14 384.6 325.9 381.824 325.9 378.4C325.9 374.976 316.14 372.2 304.1 372.2C292.06 372.2 282.3 374.976 282.3 378.4C282.3 381.824 292.06 384.6 304.1 384.6Z" fill="#0C111D"/>
<path d="M304.1 385.2C293.2 385.2 281.6 382.8 281.6 378.3C281.6 373.8 293.2 371.4 304.1 371.4C315 371.4 326.6 373.8 326.6 378.3C326.6 382.8 315 385.2 304.1 385.2ZM304.1 372.9C291.7 372.9 283 375.8 283 378.4C283 381 291.6 383.9 304.1 383.9C316.6 383.9 325.2 381 325.2 378.4C325.2 375.8 316.5 372.9 304.1 372.9Z" fill="#0C111D"/>
<path d="M287.4 366V375C287.4 378.4 297.2 381.2 309.2 381.2C321.2 381.2 331 378.5 331 375V366H287.4Z" fill="white"/>
<path d="M309.2 381.9C298.3 381.9 286.7 379.5 286.7 375V366C286.7 365.6 287 365.3 287.4 365.3H331C331.4 365.3 331.7 365.6 331.7 366V375C331.7 379.5 320.1 381.9 309.2 381.9ZM288.1 366.7V375C288.1 377.6 296.7 380.5 309.2 380.5C321.7 380.5 330.3 377.6 330.3 375V366.7H288.1Z" fill="#0C111D"/>
<path d="M309.2 372.2C321.24 372.2 331 369.424 331 366C331 362.576 321.24 359.8 309.2 359.8C297.16 359.8 287.4 362.576 287.4 366C287.4 369.424 297.16 372.2 309.2 372.2Z" fill="#0C111D"/>
<path d="M309.2 372.9C298.3 372.9 286.7 370.5 286.7 366C286.7 361.5 298.3 359.1 309.2 359.1C320.1 359.1 331.7 361.5 331.7 366C331.7 370.5 320.1 372.9 309.2 372.9ZM309.2 360.5C296.8 360.5 288.1 363.4 288.1 366C288.1 368.6 296.7 371.5 309.2 371.5C321.7 371.5 330.3 368.6 330.3 366C330.3 363.4 321.6 360.5 309.2 360.5Z" fill="#0C111D"/>
<path d="M283 352.3V361.3C283 364.7 292.8 367.5 304.8 367.5C316.8 367.5 326.6 364.7 326.6 361.3V352.3H283Z" fill="white"/>
<path d="M304.7 368.1C293.8 368.1 282.2 365.7 282.2 361.2V352.2C282.2 351.8 282.5 351.5 282.9 351.5H326.4C326.8 351.5 327.1 351.8 327.1 352.2V361.2C327.2 365.7 315.6 368.1 304.7 368.1ZM283.7 353V361.3C283.7 363.9 292.3 366.8 304.8 366.8C317.3 366.8 325.9 363.9 325.9 361.3V353H283.7Z" fill="#0C111D"/>
<path d="M304.7 358.5C316.74 358.5 326.5 355.724 326.5 352.3C326.5 348.876 316.74 346.1 304.7 346.1C292.66 346.1 282.9 348.876 282.9 352.3C282.9 355.724 292.66 358.5 304.7 358.5Z" fill="white"/>
<path d="M304.7 359.1C293.8 359.1 282.2 356.7 282.2 352.2C282.2 347.7 293.8 345.3 304.7 345.3C315.6 345.3 327.2 347.7 327.2 352.2C327.2 356.7 315.6 359.1 304.7 359.1ZM304.7 346.8C292.3 346.8 283.6 349.7 283.6 352.3C283.6 354.9 292.2 357.8 304.7 357.8C317.2 357.8 325.8 354.9 325.8 352.3C325.8 349.7 317.2 346.8 304.7 346.8Z" fill="#0C111D"/>
<path d="M304.7 356.7C298.2 356.7 285.7 355.8 285.7 352.3C285.7 348.8 298.1 347.8 304.7 347.8C311.3 347.8 323.7 348.7 323.7 352.3C323.7 355.9 311.3 356.7 304.7 356.7ZM304.7 349.2C293.3 349.2 287.2 351.2 287.2 352.2C287.2 353.2 293.4 355.2 304.7 355.2C316 355.2 322.3 353.2 322.3 352.2C322.3 351.2 316.1 349.2 304.7 349.2Z" fill="#98A2B3"/>
<path d="M339.4 373.5V382.5C339.4 385.9 349.1 388.7 361.2 388.7C373.3 388.7 383 385.9 383 382.5V373.5H339.4Z" fill="white"/>
<path d="M361.1 389.4C350.2 389.4 338.6 387 338.6 382.5V373.5C338.6 373.1 338.9 372.8 339.3 372.8H382.8C383.2 372.8 383.5 373.1 383.5 373.5V382.5C383.6 387 372 389.4 361.1 389.4ZM340 374.2V382.5C340 385.1 348.6 388 361.1 388C373.6 388 382.2 385.1 382.2 382.5V374.2H340Z" fill="#0C111D"/>
<path d="M361.1 379.7C373.14 379.7 382.9 376.924 382.9 373.5C382.9 370.076 373.14 367.3 361.1 367.3C349.06 367.3 339.3 370.076 339.3 373.5C339.3 376.924 349.06 379.7 361.1 379.7Z" fill="#0C111D"/>
<path d="M361.1 380.4C350.2 380.4 338.6 378 338.6 373.5C338.6 369 350.2 366.6 361.1 366.6C372 366.6 383.6 369 383.6 373.5C383.6 378 372 380.4 361.1 380.4ZM361.1 368.1C348.7 368.1 340 371 340 373.6C340 376.2 348.7 379.1 361.1 379.1C373.5 379.1 382.2 376.2 382.2 373.6C382.2 371 373.5 368.1 361.1 368.1Z" fill="#0C111D"/>
<path d="M336.5 362.9V371.9C336.5 375.3 346.2 378.1 358.3 378.1C370.4 378.1 380 375.3 380 371.9V362.9H336.5Z" fill="white"/>
<path d="M358.3 378.8C347.4 378.8 335.8 376.4 335.8 371.9V362.9C335.8 362.5 336.1 362.2 336.5 362.2H380C380.4 362.2 380.7 362.5 380.7 362.9V371.9C380.7 376.4 369.2 378.8 358.3 378.8ZM337.2 363.6V371.9C337.2 374.5 345.8 377.4 358.3 377.4C370.8 377.4 379.4 374.5 379.4 371.9V363.6H337.2Z" fill="#0C111D"/>
<path d="M358.3 369.1C370.34 369.1 380.1 366.324 380.1 362.9C380.1 359.476 370.34 356.7 358.3 356.7C346.26 356.7 336.5 359.476 336.5 362.9C336.5 366.324 346.26 369.1 358.3 369.1Z" fill="#0C111D"/>
<path d="M358.3 369.8C347.4 369.8 335.8 367.4 335.8 362.9C335.8 358.4 347.4 356 358.3 356C369.2 356 380.8 358.4 380.8 362.9C380.8 367.4 369.2 369.8 358.3 369.8ZM358.3 357.4C345.9 357.4 337.2 360.3 337.2 362.9C337.2 365.5 345.8 368.4 358.3 368.4C370.8 368.4 379.4 365.5 379.4 362.9C379.4 360.3 370.7 357.4 358.3 357.4Z" fill="#0C111D"/>
<path d="M340 349.9V358.9C340 362.3 349.7 365.1 361.8 365.1C373.9 365.1 383.6 362.3 383.6 358.9V349.9H340Z" fill="white"/>
<path d="M361.8 365.8C350.9 365.8 339.3 363.4 339.3 358.9V349.9C339.3 349.5 339.6 349.2 340 349.2H383.5C383.9 349.2 384.2 349.5 384.2 349.9V358.9C384.2 363.4 372.7 365.8 361.8 365.8ZM340.7 350.6V358.9C340.7 361.5 349.3 364.4 361.8 364.4C374.3 364.4 382.9 361.5 382.9 358.9V350.6H340.7Z" fill="#0C111D"/>
<path d="M361.8 356.1C373.84 356.1 383.6 353.324 383.6 349.9C383.6 346.476 373.84 343.7 361.8 343.7C349.76 343.7 340 346.476 340 349.9C340 353.324 349.76 356.1 361.8 356.1Z" fill="#0C111D"/>
<path d="M361.8 356.8C350.9 356.8 339.3 354.4 339.3 349.9C339.3 345.4 350.9 343 361.8 343C372.7 343 384.3 345.4 384.3 349.9C384.3 354.4 372.7 356.8 361.8 356.8ZM361.8 344.4C349.4 344.4 340.7 347.3 340.7 349.9C340.7 352.5 349.3 355.4 361.8 355.4C374.3 355.4 382.9 352.5 382.9 349.9C382.9 347.3 374.2 344.4 361.8 344.4Z" fill="#0C111D"/>
<path d="M336.5 336.8V345.8C336.5 349.2 346.2 352 358.3 352C370.4 352 380 349.2 380 345.8V336.8H336.5Z" fill="white"/>
<path d="M358.3 352.7C347.4 352.7 335.8 350.3 335.8 345.8V336.8C335.8 336.4 336.1 336.1 336.5 336.1H380C380.4 336.1 380.7 336.4 380.7 336.8V345.8C380.7 350.3 369.2 352.7 358.3 352.7ZM337.2 337.5V345.8C337.2 348.4 345.8 351.3 358.3 351.3C370.8 351.3 379.4 348.4 379.4 345.8V337.5H337.2Z" fill="#0C111D"/>
<path d="M358.3 343C370.34 343 380.1 340.224 380.1 336.8C380.1 333.376 370.34 330.6 358.3 330.6C346.26 330.6 336.5 333.376 336.5 336.8C336.5 340.224 346.26 343 358.3 343Z" fill="#0C111D"/>
<path d="M358.3 343.7C347.4 343.7 335.8 341.3 335.8 336.8C335.8 332.3 347.4 330 358.3 330C369.2 330 380.8 332.4 380.8 336.9C380.8 341.4 369.2 343.7 358.3 343.7ZM358.3 331.4C345.9 331.4 337.2 334.3 337.2 336.9C337.2 339.5 345.8 342.4 358.3 342.4C370.8 342.4 379.4 339.5 379.4 336.9C379.4 334.3 370.7 331.4 358.3 331.4Z" fill="#0C111D"/>
<path d="M343.5 326.1V335.1C343.5 338.5 353.3 341.3 365.3 341.3C377.3 341.3 387.1 338.5 387.1 335.1V326.1H343.5Z" fill="white"/>
<path d="M365.3 342C354.4 342 342.8 339.6 342.8 335.1V326.1C342.8 325.7 343.1 325.4 343.5 325.4H387C387.4 325.4 387.7 325.7 387.7 326.1V335.1C387.8 339.6 376.2 342 365.3 342ZM344.2 326.8V335.1C344.2 337.7 352.8 340.6 365.3 340.6C377.8 340.6 386.4 337.7 386.4 335.1V326.8H344.2Z" fill="#0C111D"/>
<path d="M365.3 332.3C377.34 332.3 387.1 329.524 387.1 326.1C387.1 322.676 377.34 319.9 365.3 319.9C353.26 319.9 343.5 322.676 343.5 326.1C343.5 329.524 353.26 332.3 365.3 332.3Z" fill="#0C111D"/>
<path d="M365.3 333C354.4 333 342.8 330.6 342.8 326.1C342.8 321.6 354.4 319.2 365.3 319.2C376.2 319.2 387.8 321.6 387.8 326.1C387.8 330.6 376.2 333 365.3 333ZM365.3 320.7C352.9 320.7 344.2 323.6 344.2 326.2C344.2 328.8 352.8 331.7 365.3 331.7C377.8 331.7 386.4 328.8 386.4 326.2C386.4 323.6 377.7 320.7 365.3 320.7Z" fill="#0C111D"/>
<path d="M338.8 315.5V324.5C338.8 327.9 348.5 330.7 360.6 330.7C372.7 330.7 382.4 327.9 382.4 324.5V315.5H338.8Z" fill="white"/>
<path d="M360.5 331.4C349.6 331.4 338 329 338 324.5V315.5C338 315.1 338.3 314.8 338.7 314.8H382.2C382.6 314.8 382.9 315.1 382.9 315.5V324.5C383 328.9 371.4 331.4 360.5 331.4ZM339.5 316.2V324.5C339.5 327.1 348.1 330 360.6 330C373.1 330 381.7 327.1 381.7 324.5V316.2H339.5Z" fill="#0C111D"/>
<path d="M360.5 321.7C372.54 321.7 382.3 318.924 382.3 315.5C382.3 312.076 372.54 309.3 360.5 309.3C348.46 309.3 338.7 312.076 338.7 315.5C338.7 318.924 348.46 321.7 360.5 321.7Z" fill="white"/>
<path d="M360.5 322.4C349.6 322.4 338 320 338 315.5C338 311 349.6 308.6 360.5 308.6C371.4 308.6 383 311 383 315.5C383 320 371.4 322.4 360.5 322.4ZM360.5 310C348.1 310 339.4 312.9 339.4 315.5C339.4 318.1 348 321 360.5 321C373 321 381.6 318.1 381.6 315.5C381.6 312.9 372.9 310 360.5 310Z" fill="#0C111D"/>
<path d="M360.5 319.9C353.9 319.9 341.5 319 341.5 315.5C341.5 312 353.9 311 360.5 311C367.1 311 379.5 311.9 379.5 315.5C379.5 319.1 367.1 319.9 360.5 319.9ZM360.5 312.4C349.1 312.4 343 314.4 343 315.4C343 316.4 349.2 318.4 360.5 318.4C371.8 318.4 378 316.4 378 315.4C378 314.4 371.9 312.4 360.5 312.4Z" fill="#98A2B3"/>
<path d="M199 403.8C209.383 403.8 217.8 395.383 217.8 385C217.8 374.617 209.383 366.2 199 366.2C188.617 366.2 180.2 374.617 180.2 385C180.2 395.383 188.617 403.8 199 403.8Z" fill="white"/>
<path d="M199 404.4C188.2 404.4 179.5 395.7 179.5 384.9C179.5 374.1 188.2 365.4 199 365.4C209.8 365.4 218.5 374.1 218.5 384.9C218.5 387.6 217.9 390.2 216.9 392.6C213.8 399.8 206.8 404.4 199 404.4ZM199.1 366.9C189.1 366.9 181 375 181 385C181 395 189.1 403.1 199.1 403.1C209.1 403.1 217.2 395 217.2 385C217.2 377.8 212.9 371.3 206.3 368.4C203.9 367.4 201.5 366.9 199.1 366.9Z" fill="#0C111D"/>
<path d="M199 400.7C190.3 400.7 183.3 393.7 183.3 385C183.3 376.3 190.3 369.3 199 369.3C201.2 369.3 203.3 369.7 205.3 370.6C213.3 374.1 216.9 383.3 213.4 391.2C211.8 395 208.6 398 204.8 399.6C202.9 400.3 201 400.7 199 400.7ZM199 370.7C191.1 370.7 184.7 377.1 184.7 385C184.7 392.9 191.1 399.3 199 399.3C204.7 399.3 209.8 395.9 212.1 390.7C215.2 383.4 211.9 375 204.6 371.9C202.9 371.1 200.9 370.7 199 370.7Z" fill="#98A2B3"/>
<path d="M273.5 383.7V392.7C273.5 396.1 263.7 398.9 251.7 398.9C239.7 398.9 230 396.1 230 392.7V383.7H273.5Z" fill="white"/>
<path d="M251.8 399.6C240.9 399.6 229.3 397.2 229.3 392.7V383.7C229.3 383.3 229.6 383 230 383H273.5C273.9 383 274.2 383.3 274.2 383.7V392.7C274.2 397.1 262.6 399.6 251.8 399.6ZM230.7 384.4V392.7C230.7 395.3 239.3 398.2 251.8 398.2C264.3 398.2 272.9 395.3 272.9 392.7V384.4H230.7Z" fill="#0C111D"/>
<path d="M251.8 389.9C263.84 389.9 273.6 387.124 273.6 383.7C273.6 380.276 263.84 377.5 251.8 377.5C239.76 377.5 230 380.276 230 383.7C230 387.124 239.76 389.9 251.8 389.9Z" fill="white"/>
<path d="M251.8 390.5C240.9 390.5 229.3 388.1 229.3 383.6C229.3 379.1 240.9 376.7 251.8 376.7C262.7 376.7 274.3 379.1 274.3 383.6C274.3 388.1 262.6 390.5 251.8 390.5ZM251.8 378.2C239.4 378.2 230.7 381.1 230.7 383.7C230.7 386.3 239.3 389.2 251.8 389.2C264.3 389.2 272.9 386.3 272.9 383.7C272.9 381.1 264.2 378.2 251.8 378.2Z" fill="#0C111D"/>
<path d="M251.8 388.1C245.2 388.1 232.9 387.2 232.9 383.7C232.9 380.2 245.3 379.3 251.8 379.3C258.3 379.3 270.8 380.2 270.8 383.7C270.8 387.2 258.3 388.1 251.8 388.1ZM251.8 380.6C240.4 380.6 234.2 382.6 234.2 383.6C234.2 384.6 240.4 386.6 251.8 386.6C263.2 386.6 269.4 384.6 269.4 383.6C269.4 382.6 263.1 380.6 251.8 380.6Z" fill="#98A2B3"/>
<path d="M209.6 365H173.1C172.7 365 172.4 364.7 172.4 364.3C172.4 363.9 172.7 363.6 173.1 363.6H209.6C210 363.6 210.3 363.9 210.3 364.3C210.3 364.7 210 365 209.6 365Z" fill="white"/>
</svg>
