<svg width="16" height="16" viewBox="0 0 16 16" fill="none" xmlns="http://www.w3.org/2000/svg">
<g clip-path="url(#clip0_1331_27977)">
<rect width="16" height="16" fill="white" fill-opacity="0.01"/>
<path d="M8.5 5.99992C8.5 5.72378 8.27614 5.49992 8 5.49992C7.72386 5.49992 7.5 5.72378 7.5 5.99992L7.5 7.49994H6C5.72386 7.49994 5.5 7.72379 5.5 7.99994C5.5 8.27608 5.72386 8.49994 6 8.49994H7.5V9.99992C7.5 10.2761 7.72386 10.4999 8 10.4999C8.27614 10.4999 8.5 10.2761 8.5 9.99992L8.5 8.49994H10C10.2761 8.49994 10.5 8.27608 10.5 7.99994C10.5 7.72379 10.2761 7.49994 10 7.49994H8.5V5.99992Z" fill="#BE1E2D"/>
<path fill-rule="evenodd" clip-rule="evenodd" d="M8 0.833252C4.04196 0.833252 0.833336 4.04188 0.833336 7.99992C0.833336 11.958 4.04196 15.1666 8 15.1666C11.958 15.1666 15.1667 11.958 15.1667 7.99992C15.1667 4.04188 11.958 0.833252 8 0.833252ZM1.83334 7.99992C1.83334 4.59416 4.59425 1.83325 8 1.83325C11.4058 1.83325 14.1667 4.59416 14.1667 7.99992C14.1667 11.4057 11.4058 14.1666 8 14.1666C4.59425 14.1666 1.83334 11.4057 1.83334 7.99992Z" fill="#BE1E2D"/>
</g>
<defs>
<clipPath id="clip0_1331_27977">
<rect width="16" height="16" fill="white"/>
</clipPath>
</defs>
</svg>
