<svg width="20" height="20" viewBox="0 0 20 20" fill="none" xmlns="http://www.w3.org/2000/svg">
<path fill-rule="evenodd" clip-rule="evenodd" d="M14.375 3.125C14.0298 3.125 13.75 3.40482 13.75 3.75C13.75 4.09518 14.0298 4.375 14.375 4.375H16.875V6.875C16.875 7.22018 17.1548 7.5 17.5 7.5C17.8452 7.5 18.125 7.22018 18.125 6.875V3.75C18.125 3.40482 17.8452 3.125 17.5 3.125H14.375ZM3.125 13.125C3.125 12.7798 2.84518 12.5 2.5 12.5C2.15482 12.5 1.875 12.7798 1.875 13.125V16.25C1.875 16.5952 2.15482 16.875 2.5 16.875H5.625C5.97018 16.875 6.25 16.5952 6.25 16.25C6.25 15.9048 5.97018 15.625 5.625 15.625H3.125V13.125ZM17.5 12.5C17.8452 12.5 18.125 12.7798 18.125 13.125V16.25C18.125 16.5952 17.8452 16.875 17.5 16.875H14.375C14.0298 16.875 13.75 16.5952 13.75 16.25C13.75 15.9048 14.0298 15.625 14.375 15.625H16.875V13.125C16.875 12.7798 17.1548 12.5 17.5 12.5ZM2.5 3.125C2.15482 3.125 1.875 3.40482 1.875 3.75V6.875C1.875 7.22018 2.15482 7.5 2.5 7.5C2.84518 7.5 3.125 7.22018 3.125 6.875V4.375H5.625C5.97018 4.375 6.25 4.09518 6.25 3.75C6.25 3.40482 5.97018 3.125 5.625 3.125H2.5ZM6.25 6.25C6.59518 6.25 6.875 6.52982 6.875 6.875V13.125C6.875 13.4702 6.59518 13.75 6.25 13.75C5.90482 13.75 5.625 13.4702 5.625 13.125V6.875C5.625 6.52982 5.90482 6.25 6.25 6.25ZM14.375 6.875C14.375 6.52982 14.0952 6.25 13.75 6.25C13.4048 6.25 13.125 6.52982 13.125 6.875V13.125C13.125 13.4702 13.4048 13.75 13.75 13.75C14.0952 13.75 14.375 13.4702 14.375 13.125V6.875ZM11.25 6.25C11.5952 6.25 11.875 6.52982 11.875 6.875V13.125C11.875 13.4702 11.5952 13.75 11.25 13.75C10.9048 13.75 10.625 13.4702 10.625 13.125V6.875C10.625 6.52982 10.9048 6.25 11.25 6.25ZM9.375 6.875C9.375 6.52982 9.09518 6.25 8.75 6.25C8.40482 6.25 8.125 6.52982 8.125 6.875V13.125C8.125 13.4702 8.40482 13.75 8.75 13.75C9.09518 13.75 9.375 13.4702 9.375 13.125V6.875Z" fill="#98A2B3"/>
</svg>
