<svg width="21" height="20" viewBox="0 0 21 20" fill="none" xmlns="http://www.w3.org/2000/svg">
<path d="M15.5003 8.33342C15.5003 8.79365 15.1272 9.16675 14.667 9.16675C14.2068 9.16675 13.8337 8.79365 13.8337 8.33342C13.8337 7.87318 14.2068 7.50008 14.667 7.50008C15.1272 7.50008 15.5003 7.87318 15.5003 8.33342Z" fill="#344054"/>
<path fill-rule="evenodd" clip-rule="evenodd" d="M10.4546 1.04175H10.5461C11.6857 1.04173 12.6043 1.04172 13.3268 1.13885C14.0769 1.2397 14.7084 1.45544 15.21 1.95704C15.8267 2.57369 16.0174 3.39606 16.0847 4.41627C16.2889 4.4299 16.4805 4.44804 16.6601 4.47219C17.4102 4.57303 18.0418 4.78878 18.5434 5.29037C19.045 5.79197 19.2607 6.42353 19.3616 7.17362C19.4587 7.8961 19.4587 8.8147 19.4587 9.95436V10.0458C19.4587 11.1855 19.4587 12.1041 19.3616 12.8265C19.2607 13.5766 19.045 14.2082 18.5434 14.7098C17.9267 15.3264 17.1044 15.5171 16.0841 15.5844C16.0705 15.7886 16.0524 15.9803 16.0282 16.1599C15.9274 16.91 15.7116 17.5415 15.21 18.0431C14.7084 18.5447 14.0769 18.7605 13.3268 18.8613C12.6043 18.9584 11.6857 18.9584 10.5461 18.9584H10.4546C9.31494 18.9584 8.39634 18.9584 7.67387 18.8613C6.92378 18.7605 6.29221 18.5447 5.79062 18.0431C5.28902 17.5415 5.07328 16.91 4.97243 16.1599C4.94828 15.9803 4.93014 15.7886 4.91651 15.5844C3.8963 15.5171 3.07393 15.3264 2.45728 14.7098C1.95569 14.2082 1.73994 13.5766 1.6391 12.8265C1.54196 12.1041 1.54198 11.1855 1.54199 10.0458V9.95435C1.54198 8.81469 1.54196 7.8961 1.6391 7.17362C1.73994 6.42353 1.95569 5.79197 2.45728 5.29037C2.95888 4.78878 3.59044 4.57303 4.34053 4.47219C4.52011 4.44804 4.7118 4.4299 4.91599 4.41627C4.98326 3.39606 5.17397 2.57369 5.79062 1.95704C6.29221 1.45544 6.92378 1.2397 7.67387 1.13885C8.39634 1.04172 9.31494 1.04173 10.4546 1.04175ZM6.17295 4.37754C6.47037 4.37507 6.78627 4.37508 7.12126 4.37508H13.8794C14.2144 4.37508 14.5303 4.37507 14.8277 4.37754C14.7594 3.52682 14.6057 3.12052 14.3262 2.84092C14.0955 2.61029 13.7717 2.45992 13.1602 2.3777C12.5308 2.29308 11.6965 2.29175 10.5003 2.29175C9.30415 2.29175 8.46988 2.29308 7.84043 2.3777C7.22895 2.45992 6.90514 2.61029 6.6745 2.84092C6.39491 3.12052 6.24123 3.52682 6.17295 4.37754ZM4.87778 14.3275C4.87532 14.03 4.87532 13.7141 4.87533 13.3791L4.87533 12.2917H4.66699C4.32182 12.2917 4.04199 12.0119 4.04199 11.6667C4.04199 11.3216 4.32182 11.0417 4.66699 11.0417H16.3337C16.6788 11.0417 16.9587 11.3216 16.9587 11.6667C16.9587 12.0119 16.6788 12.2917 16.3337 12.2917H16.1253V13.3791C16.1253 13.7141 16.1253 14.03 16.1229 14.3275C16.9736 14.2592 17.3799 14.1055 17.6595 13.8259C17.8901 13.5953 18.0405 13.2715 18.1227 12.66C18.2073 12.0305 18.2087 11.1963 18.2087 10.0001C18.2087 8.8039 18.2073 7.96964 18.1227 7.34018C18.0405 6.7287 17.8901 6.40489 17.6595 6.17426C17.4289 5.94362 17.105 5.79325 16.4936 5.71104C15.8641 5.62641 15.0298 5.62508 13.8337 5.62508H7.16699C5.97081 5.62508 5.13655 5.62641 4.50709 5.71104C3.89561 5.79325 3.5718 5.94362 3.34117 6.17426C3.11053 6.40489 2.96016 6.7287 2.87795 7.34018C2.79332 7.96964 2.79199 8.8039 2.79199 10.0001C2.79199 11.1963 2.79332 12.0305 2.87795 12.66C2.96016 13.2715 3.11053 13.5953 3.34117 13.8259C3.62076 14.1055 4.02707 14.2592 4.87778 14.3275ZM14.8753 12.2917H6.12533V13.3334C6.12533 14.5296 6.12665 15.3639 6.21128 15.9933C6.29349 16.6048 6.44386 16.9286 6.6745 17.1592C6.90514 17.3899 7.22895 17.5402 7.84043 17.6225C8.46988 17.7071 9.30415 17.7084 10.5003 17.7084C11.6965 17.7084 12.5308 17.7071 13.1602 17.6225C13.7717 17.5402 14.0955 17.3899 14.3262 17.1592C14.5568 16.9286 14.7072 16.6048 14.7894 15.9933C14.874 15.3639 14.8753 14.5296 14.8753 13.3334V12.2917ZM4.87533 8.33342C4.87533 7.98824 5.15515 7.70842 5.50033 7.70842H8.00033C8.3455 7.70842 8.62533 7.98824 8.62533 8.33342C8.62533 8.67859 8.3455 8.95842 8.00033 8.95842H5.50033C5.15515 8.95842 4.87533 8.67859 4.87533 8.33342ZM7.37533 14.0041C7.37533 13.659 7.65515 13.3791 8.00033 13.3791H13.0003C13.3455 13.3791 13.6253 13.659 13.6253 14.0041C13.6253 14.3493 13.3455 14.6291 13.0003 14.6291H8.00033C7.65515 14.6291 7.37533 14.3493 7.37533 14.0041ZM7.37533 16.0875C7.37533 15.7423 7.65515 15.4625 8.00033 15.4625H11.3337C11.6788 15.4625 11.9587 15.7423 11.9587 16.0875C11.9587 16.4327 11.6788 16.7125 11.3337 16.7125H8.00033C7.65515 16.7125 7.37533 16.4327 7.37533 16.0875Z" fill="#344054"/>
</svg>
